# xmcd
#
# Track frame offsets: 
#        150
#        21435
#        41255
#        61558
#        80099
#        101231
#        119286
#        140927
#        156568
#        180275
#        194446
#        218386
#        239449
#        266900
#
# Disc length: 3772 seconds
#
# Revision: 0
# Processed by: cddbd v1.5.2PL0 Copyright (c) Steve Scherf et al.
# Submitted via: ExactAudioCopy v1.0b3
#
DISCID=c90eba0e
DTITLE=Ken Valdez - Thoughts and Time
DYEAR=2005
DGENRE=Blues
TTITLE0=Shades Of Gray
TTITLE1=Thoughts and Time
TTITLE2=World On Fire
TTITLE3=Home Before Dark
TTITLE4=As I Fall
TTITLE5=One More Time
TTITLE6=Best Intentions
TTITLE7=Just Another Blues Song (Harley)
TTITLE8=Talk To Me
TTITLE9=Time Stands Still
TTITLE10=Sooner Or Later
TTITLE11=Almost Getting Somewhere
TTITLE12=Tragiksoul
TTITLE13=Mama's Arms
EXTD=
EXTT0=
EXTT1=
EXTT2=
EXTT3=
EXTT4=
EXTT5=
EXTT6=
EXTT7=
EXTT8=
EXTT9=
EXTT10=
EXTT11=
EXTT12=
EXTT13=
PLAYORDER=
